<?xml version="1.0" encoding="utf-8"?>
<!-- Generator: Adobe Illustrator 25.3.1, SVG Export Plug-In . SVG Version: 6.00 Build 0)  -->
<svg version="1.1" id="Capa_1" xmlns="http://www.w3.org/2000/svg" xmlns:xlink="http://www.w3.org/1999/xlink" x="0px" y="0px"
	 viewBox="0 0 328.46 80" style="enable-background:new 0 0 328.46 80;" xml:space="preserve">
<style type="text/css">
	.st0{fill:#24B874;}
	.st1{fill:#333E3C;}
</style>
<g>
	<g>
		<g>
			<path class="st0" d="M42.67,70.52c-10.57,0-20.78-4.21-28.28-11.71C6.44,50.87,2.19,39.87,2.71,28.64l0.15-3.11l3.11-0.15
				c11.23-0.51,22.22,3.74,30.16,11.69c0.16,0.16,0.31,0.32,0.45,0.48c6.5,6.71,10.46,15.51,11.15,24.79
				c0.08,0.98,0.12,2.02,0.12,3.05c0,0.61-0.01,1.22-0.04,1.83l-0.15,3.11l-3.11,0.15C43.93,70.51,43.3,70.52,42.67,70.52z
				 M9.55,32.22c0.43,8.15,3.86,15.94,9.67,21.76c5.81,5.81,13.6,9.24,21.75,9.66c-0.02-0.25-0.03-0.51-0.05-0.76
				c-0.58-7.76-3.88-15.08-9.32-20.65l-0.22-0.25C25.49,36.09,17.7,32.65,9.55,32.22z"/>
			<path class="st0" d="M46.21,70.52c-0.63,0-1.26-0.02-1.9-0.05l-3.11-0.15l-0.15-3.11c-0.03-0.61-0.04-1.22-0.04-1.83
				c0-1.16,0.05-2.3,0.14-3.36l0.14-1.26c0.96-8.46,4.51-16.2,10.31-22.47l0.12-0.14c0.32-0.36,0.67-0.73,1.03-1.09
				c7.93-7.95,18.92-12.2,30.16-11.69l3.11,0.14l0.14,3.11c0.52,11.23-3.74,22.23-11.68,30.17l0,0c0,0,0,0,0,0
				C66.99,66.31,56.77,70.52,46.21,70.52z M47.9,63.6c0,0.01,0,0.03,0,0.04c8.15-0.42,15.94-3.85,21.76-9.66l0,0
				c5.81-5.81,9.24-13.6,9.67-21.76c-8.15,0.43-15.93,3.86-21.74,9.68c-0.01,0.01-0.02,0.02-0.03,0.03l-0.77,0.83
				c-5.14,5.48-8.18,12.34-8.8,19.84L47.9,63.6z"/>
			<path class="st0" d="M41.47,70.29l-0.55-7.44c-0.57-7.73-3.88-15.05-9.32-20.62l-0.83-0.85l-0.12-1.19
				c-0.16-1.53-0.24-3.05-0.24-4.53c0-10.85,4-21.27,11.26-29.36l2.54-2.83l2.54,2.83C54,14.39,58,24.81,58,35.67
				c0,1.72-0.09,3.34-0.28,4.95v1.15l-0.93,1c-5.14,5.48-8.18,12.34-8.8,19.84l-0.1,1.25l-0.81,0.81c-0.1,0.12-0.21,0.24-0.33,0.36
				L41.47,70.29z M37.34,38.36c2.95,3.22,5.33,6.88,7.08,10.82c1.64-3.7,3.84-7.13,6.59-10.23c0.1-1.06,0.14-2.14,0.14-3.28
				c0-7.81-2.45-15.35-6.95-21.63c-4.51,6.28-6.96,13.83-6.96,21.63C37.24,36.55,37.28,37.45,37.34,38.36z"/>
		</g>
	</g>
	<g>
		<path class="st1" d="M103.95,62.33V57l5.1-0.97V21.38l-5.1-0.97v-5.36h5.1h17.24c3.57,0,6.64,0.62,9.21,1.87
			c2.57,1.24,4.54,2.99,5.93,5.23s2.08,4.84,2.08,7.81c0,2.99-0.69,5.59-2.08,7.81s-3.36,3.95-5.93,5.18
			c-2.57,1.23-5.63,1.85-9.21,1.85h-8.41v11.24l5.1,0.97v5.33H103.95z M117.88,37.97h8.41c2.77,0,4.86-0.75,6.27-2.24
			c1.41-1.49,2.11-3.4,2.11-5.72c0-2.34-0.7-4.28-2.11-5.83c-1.41-1.55-3.5-2.32-6.27-2.32h-8.41V37.97z"/>
		<path class="st1" d="M149.74,62.33V57l4.74-0.97V18l-5.1-0.97v-5.36h13.93v44.36l4.74,0.97v5.33H149.74z"/>
		<path class="st1" d="M186.45,63.01c-3.53,0-6.31-0.93-8.33-2.78c-2.02-1.85-3.04-4.39-3.04-7.61c0-2.21,0.6-4.15,1.8-5.83
			c1.2-1.68,2.98-2.99,5.33-3.93c2.35-0.94,5.21-1.41,8.59-1.41h5v-2.76c0-1.78-0.52-3.2-1.57-4.29s-2.59-1.62-4.63-1.62
			c-1.1,0-2.09,0.14-2.97,0.41s-1.66,0.65-2.35,1.15l-0.75,4.71h-6.43l-0.06-8.9c1.78-1.08,3.73-1.95,5.86-2.61
			c2.13-0.66,4.51-0.99,7.13-0.99c4.52,0,8.09,1.06,10.7,3.17s3.91,5.14,3.91,9.08v14.97c0,0.48,0.01,0.94,0.02,1.4
			c0.01,0.45,0.05,0.9,0.11,1.33l3.6,0.52v5.33h-11.2c-0.24-0.67-0.46-1.36-0.67-2.06s-0.35-1.41-0.44-2.13
			c-1.15,1.45-2.52,2.62-4.11,3.52C190.36,62.56,188.53,63.01,186.45,63.01z M188.63,56.35c1.49,0,2.9-0.35,4.21-1.04
			s2.3-1.57,2.97-2.63v-5.72h-5.03c-2.27,0-3.99,0.52-5.15,1.57s-1.74,2.29-1.74,3.72c0,1.3,0.41,2.31,1.23,3.02
			C185.94,56,187.11,56.35,188.63,56.35z"/>
		<path class="st1" d="M215.11,62.33V57l4.71-0.97v-22.5l-5.07-0.97v-5.36H228l0.42,5.07c1.17-1.8,2.62-3.2,4.37-4.21
			s3.72-1.51,5.93-1.51c3.53,0,6.29,1.11,8.3,3.33s3,5.7,3,10.44v15.72l4.71,0.97v5.33h-17.89V57l4.32-0.97V40.38
			c0-2.51-0.5-4.29-1.49-5.34c-1-1.05-2.48-1.57-4.45-1.57c-1.47,0-2.75,0.32-3.85,0.96c-1.09,0.64-2,1.54-2.71,2.71v18.9L232.8,57
			v5.33H215.11z"/>
		<path class="st1" d="M273.76,62.98c-3.12,0-5.54-0.87-7.26-2.61c-1.72-1.74-2.58-4.51-2.58-8.3V33.46h-4.97v-6.27h4.97v-8.57h8.8
			v8.57h6.72v6.27h-6.72v18.61c0,1.43,0.3,2.46,0.91,3.08c0.61,0.63,1.42,0.94,2.44,0.94c0.56,0,1.18-0.04,1.85-0.13
			c0.67-0.09,1.23-0.17,1.69-0.26l0.84,6.27c-0.97,0.28-2.05,0.52-3.23,0.71C276.04,62.88,274.89,62.98,273.76,62.98z"/>
		<path class="st1" d="M296.7,76.52c-0.74,0-1.55-0.07-2.45-0.21s-1.72-0.31-2.45-0.5l1.01-6.56c0.39,0.06,0.85,0.12,1.38,0.16
			c0.53,0.04,0.96,0.06,1.28,0.06c1.39,0,2.55-0.39,3.51-1.17c0.95-0.78,1.69-1.88,2.21-3.31l0.94-2.5l-11.88-29.32l-4.22-0.62
			v-5.36h17.86v5.36l-4.32,0.65l5.81,15.94l0.88,2.5h0.19l6.88-18.48l-4.29-0.62v-5.36h16.75v5.36l-3.86,0.55l-13.51,34.49
			c-0.65,1.65-1.47,3.14-2.45,4.5c-0.98,1.35-2.23,2.43-3.73,3.23C300.73,76.12,298.89,76.52,296.7,76.52z"/>
	</g>
</g>
</svg>
